<svg width="16" height="13" viewBox="0 0 16 13" fill="none" xmlns="http://www.w3.org/2000/svg">
<g clip-path="url(#clip0_4229_6785)">
<path d="M0.970018 0.127641C0.710018 -0.0773595 0.332518 -0.0298595 0.127518 0.230141C-0.0774815 0.490141 -0.0299815 0.867641 0.230018 1.07264L15.03 12.6726C15.29 12.8776 15.6675 12.8301 15.8725 12.5701C16.0775 12.3101 16.03 11.9326 15.77 11.7276L13.14 9.66764C14.13 8.65264 14.8 7.51514 15.1375 6.70764C15.22 6.51014 15.22 6.29014 15.1375 6.09264C14.765 5.20014 13.9825 3.90014 12.8125 2.81514C11.6375 1.72014 10.02 0.800141 8.00002 0.800141C6.29502 0.800141 4.87502 1.45764 3.76752 2.32014L0.970018 0.127641ZM4.74502 3.08514C5.65002 2.44264 6.73752 2.00014 8.00002 2.00014C9.63002 2.00014 10.97 2.74014 11.9975 3.69264C12.96 4.58764 13.625 5.65014 13.965 6.40014C13.65 7.10014 13.05 8.07014 12.1925 8.92264L10.8475 7.86764C11.075 7.42764 11.2025 6.93014 11.2025 6.40014C11.2025 4.63264 9.77002 3.20014 8.00252 3.20014C7.19752 3.20014 6.46002 3.49764 5.89752 3.98764L4.74502 3.08514ZM9.87252 7.10514L7.83502 5.50764C7.94002 5.29514 8.00002 5.05264 8.00002 4.80014C8.00002 4.66264 7.98252 4.52764 7.95002 4.40014C7.96752 4.40014 7.98252 4.40014 8.00002 4.40014C9.10502 4.40014 10 5.29514 10 6.40014C10 6.64764 9.95502 6.88514 9.87252 7.10514ZM10.1075 10.3626C9.47002 10.6351 8.76752 10.8001 8.00002 10.8001C6.37002 10.8001 5.03002 10.0601 4.00252 9.10764C3.04002 8.21264 2.37502 7.15014 2.03502 6.40014C2.24252 5.94014 2.57252 5.36264 3.02002 4.78014L2.07752 4.03764C1.50752 4.78014 1.10002 5.52014 0.862518 6.09264C0.780018 6.29014 0.780018 6.51014 0.862518 6.70764C1.23502 7.60014 2.01752 8.90014 3.18752 9.98514C4.36252 11.0801 5.98002 12.0001 8.00002 12.0001C9.19502 12.0001 10.2475 11.6776 11.155 11.1876L10.1075 10.3626ZM4.80002 6.40014C4.80002 8.16764 6.23252 9.60014 8.00002 9.60014C8.33252 9.60014 8.65252 9.55014 8.95502 9.45514L7.55002 8.35014C6.96252 8.21514 6.47252 7.82014 6.20752 7.29264L4.80502 6.18764C4.80002 6.25764 4.79752 6.32764 4.79752 6.40014H4.80002Z" fill="#D9D9D9"/>
</g>
<defs>
<clipPath id="clip0_4229_6785">
<rect width="16" height="12.8" fill="white"/>
</clipPath>
</defs>
</svg>
