<svg width="10" height="8" viewBox="0 0 10 8" fill="none" xmlns="http://www.w3.org/2000/svg">
<path d="M6.66667 7.14258C8.50694 7.14258 10 5.54288 10 3.57115C10 1.59942 8.50695 -0.00027908 6.66667 -0.000279241L3.33333 -0.000279533C1.49306 -0.000279693 4.84598e-07 1.59942 3.12224e-07 3.57115C1.3985e-07 5.54287 1.49306 7.14258 3.33333 7.14258L6.66667 7.14258ZM3.33333 5.35686C2.89131 5.35686 2.46738 5.16873 2.15482 4.83384C1.84226 4.49895 1.66667 4.04475 1.66667 3.57115C1.66667 3.09755 1.84226 2.64334 2.15482 2.30846C2.46738 1.97357 2.89131 1.78543 3.33333 1.78543C3.77536 1.78543 4.19928 1.97357 4.51185 2.30846C4.82441 2.64334 5 3.09755 5 3.57115C5 4.04475 4.82441 4.49895 4.51184 4.83384C4.19928 5.16873 3.77536 5.35686 3.33333 5.35686Z" fill="#D9D9D9"/>
</svg>
