<svg width="24" height="24" viewBox="0 0 24 24" fill="none" xmlns="http://www.w3.org/2000/svg">
<path d="M19.3 7.55C19.2166 7.55 19.1458 7.53333 19.0875 7.5C19.0291 7.46667 18.9833 7.40833 18.95 7.325L18.225 5.625L16.4 4.825C16.3166 4.79167 16.2583 4.74583 16.225 4.6875C16.1916 4.62917 16.175 4.55833 16.175 4.475C16.175 4.39167 16.1916 4.32083 16.225 4.2625C16.2583 4.20417 16.3166 4.15833 16.4 4.125L18.225 3.35L18.95 1.725C18.9833 1.64167 19.0291 1.58333 19.0875 1.55C19.1458 1.51667 19.2166 1.5 19.3 1.5C19.3833 1.5 19.4541 1.51667 19.5125 1.55C19.5708 1.58333 19.6166 1.64167 19.65 1.725L20.375 3.35L22.2 4.125C22.2833 4.15833 22.3416 4.20417 22.375 4.2625C22.4083 4.32083 22.425 4.39167 22.425 4.475C22.425 4.55833 22.4083 4.62917 22.375 4.6875C22.3416 4.74583 22.2833 4.79167 22.2 4.825L20.375 5.625L19.65 7.325C19.6166 7.40833 19.5708 7.46667 19.5125 7.5C19.4541 7.53333 19.3833 7.55 19.3 7.55ZM19.3 22.45C19.2333 22.45 19.1666 22.4333 19.1 22.4C19.0333 22.3667 18.9833 22.3083 18.95 22.225L18.225 20.6L16.425 19.825C16.3416 19.7917 16.2833 19.7458 16.25 19.6875C16.2166 19.6292 16.2 19.5583 16.2 19.475C16.2 19.3917 16.2166 19.3208 16.25 19.2625C16.2833 19.2042 16.3416 19.1583 16.425 19.125L18.225 18.35L18.95 16.625C18.9833 16.5417 19.0291 16.4833 19.0875 16.45C19.1458 16.4167 19.2166 16.4 19.3 16.4C19.3833 16.4 19.4541 16.4167 19.5125 16.45C19.5708 16.4833 19.6166 16.5417 19.65 16.625L20.375 18.35L22.175 19.125C22.2583 19.1583 22.3166 19.2042 22.35 19.2625C22.3833 19.3208 22.4 19.3917 22.4 19.475C22.4 19.5583 22.3833 19.6292 22.35 19.6875C22.3166 19.7458 22.2583 19.7917 22.175 19.825L20.375 20.6L19.65 22.225C19.6166 22.3083 19.5666 22.3667 19.5 22.4C19.4333 22.4333 19.3666 22.45 19.3 22.45ZM8.32498 18.125C8.19164 18.125 8.06248 18.0875 7.93748 18.0125C7.81248 17.9375 7.71664 17.8333 7.64998 17.7L6.02498 14.225L2.52498 12.65C2.39164 12.5833 2.28748 12.4875 2.21248 12.3625C2.13748 12.2375 2.09998 12.1083 2.09998 11.975C2.09998 11.8417 2.13748 11.7125 2.21248 11.5875C2.28748 11.4625 2.39164 11.3667 2.52498 11.3L6.02498 9.725L7.64998 6.275C7.71664 6.125 7.81248 6.0125 7.93748 5.9375C8.06248 5.8625 8.19164 5.825 8.32498 5.825C8.45831 5.825 8.58748 5.8625 8.71248 5.9375C8.83748 6.0125 8.93331 6.11667 8.99998 6.25L10.65 9.725L14.125 11.3C14.275 11.3667 14.3875 11.4625 14.4625 11.5875C14.5375 11.7125 14.575 11.8417 14.575 11.975C14.575 12.1083 14.5375 12.2375 14.4625 12.3625C14.3875 12.4875 14.275 12.5833 14.125 12.65L10.65 14.225L8.99998 17.7C8.93331 17.85 8.83748 17.9583 8.71248 18.025C8.58748 18.0917 8.45831 18.125 8.32498 18.125Z" fill="#4318FF"/>
</svg>
