<svg width="10" height="8" viewBox="0 0 10 8" fill="none" xmlns="http://www.w3.org/2000/svg">
<path d="M9.29883 4.08464C10.2337 3.14975 10.2337 1.63573 9.29883 0.700839C8.4715 -0.126497 7.16762 -0.23405 6.21618 0.446019L6.18971 0.464221C5.95144 0.634652 5.89683 0.965586 6.06726 1.2022C6.23769 1.43882 6.56863 1.49508 6.80525 1.32465L6.83172 1.30645C7.36287 0.927528 8.08927 0.987097 8.54927 1.44875C9.07049 1.96997 9.07049 2.81385 8.54927 3.33507L6.69273 5.19492C6.17151 5.71614 5.32762 5.71614 4.8064 5.19492C4.34475 4.73327 4.28518 4.00687 4.6641 3.47738L4.6823 3.4509C4.85273 3.21263 4.79648 2.88169 4.55986 2.71292C4.32324 2.54414 3.99065 2.59875 3.82188 2.83536L3.80367 2.86184C3.12195 3.81162 3.2295 5.1155 4.05684 5.94283C4.99173 6.87772 6.50575 6.87772 7.44064 5.94283L9.29883 4.08464ZM0.701167 3.69745C-0.233722 4.63234 -0.233722 6.14636 0.701167 7.08125C1.5285 7.90858 2.83238 8.01614 3.78382 7.33607L3.81029 7.31787C4.04856 7.14743 4.10317 6.8165 3.93274 6.57988C3.76231 6.34326 3.43137 6.28701 3.19475 6.45744L3.16828 6.47564C2.63713 6.85456 1.91073 6.79499 1.45073 6.33334C0.929511 5.81046 0.929511 4.96658 1.45073 4.44536L3.30727 2.58716C3.82849 2.06594 4.67238 2.06594 5.1936 2.58716C5.65525 3.04882 5.71482 3.77522 5.3359 4.30637L5.3177 4.33284C5.14727 4.57111 5.20352 4.90205 5.44014 5.07082C5.67676 5.2396 6.00935 5.185 6.17813 4.94838L6.19633 4.9219C6.87805 3.97047 6.7705 2.66659 5.94316 1.83925C5.00827 0.904363 3.49425 0.904363 2.55936 1.83925L0.701167 3.69745Z" fill="#666666"/>
</svg>
