<svg width="10" height="10" viewBox="0 0 10 10" fill="none" xmlns="http://www.w3.org/2000/svg">
<path d="M4.54102 0.101084C4.83203 -0.0336947 5.16797 -0.0336947 5.45898 0.101084L9.72852 2.07393C9.89453 2.15011 10 2.31614 10 2.49976C10 2.68337 9.89453 2.8494 9.72852 2.92558L5.45898 4.89843C5.16797 5.03321 4.83203 5.03321 4.54102 4.89843L0.271484 2.92558C0.105469 2.84745 0 2.68141 0 2.49976C0 2.3181 0.105469 2.15011 0.271484 2.07393L4.54102 0.101084ZM8.68945 4.09366L9.72852 4.57418C9.89453 4.65036 10 4.81639 10 5C10 5.18361 9.89453 5.34964 9.72852 5.42582L5.45898 7.39867C5.16797 7.53345 4.83203 7.53345 4.54102 7.39867L0.271484 5.42582C0.105469 5.34769 0 5.18166 0 5C0 4.81834 0.105469 4.65036 0.271484 4.57418L1.31055 4.09366L4.2793 5.46489C4.73633 5.67585 5.26367 5.67585 5.7207 5.46489L8.68945 4.09366ZM5.7207 7.96513L8.68945 6.59391L9.72852 7.07442C9.89453 7.1506 10 7.31663 10 7.50024C10 7.68386 9.89453 7.84989 9.72852 7.92607L5.45898 9.89892C5.16797 10.0337 4.83203 10.0337 4.54102 9.89892L0.271484 7.92607C0.105469 7.84793 0 7.6819 0 7.50024C0 7.31859 0.105469 7.1506 0.271484 7.07442L1.31055 6.59391L4.2793 7.96513C4.73633 8.17609 5.26367 8.17609 5.7207 7.96513Z" fill="#666666"/>
</svg>
