<svg width="40" height="40" viewBox="0 0 40 40" fill="none" xmlns="http://www.w3.org/2000/svg">
<circle cx="20" cy="20" r="20" fill="url(#paint0_linear_2633_40450)"/>
<g filter="url(#filter0_di_2633_40450)">
<path d="M25.5398 16.8526C25.4742 16.8526 25.4185 16.8395 25.3725 16.8133C25.3266 16.787 25.2905 16.7412 25.2643 16.6756L24.6936 15.3388L23.2569 14.7097C23.1913 14.6835 23.1454 14.6474 23.1192 14.6016C23.0929 14.5557 23.0798 14.5 23.0798 14.4345C23.0798 14.3689 23.0929 14.3132 23.1192 14.2673C23.1454 14.2215 23.1913 14.1854 23.2569 14.1592L24.6936 13.5498L25.2643 12.2719C25.2905 12.2064 25.3266 12.1605 25.3725 12.1343C25.4185 12.1081 25.4742 12.095 25.5398 12.095C25.6054 12.095 25.6612 12.1081 25.7071 12.1343C25.753 12.1605 25.7891 12.2064 25.8153 12.2719L26.386 13.5498L27.8227 14.1592C27.8883 14.1854 27.9342 14.2215 27.9604 14.2673C27.9867 14.3132 27.9998 14.3689 27.9998 14.4345C27.9998 14.5 27.9867 14.5557 27.9604 14.6016C27.9342 14.6474 27.8883 14.6835 27.8227 14.7097L26.386 15.3388L25.8153 16.6756C25.7891 16.7412 25.753 16.787 25.7071 16.8133C25.6612 16.8395 25.6054 16.8526 25.5398 16.8526ZM25.5398 28.5697C25.4873 28.5697 25.4349 28.5565 25.3824 28.5303C25.3299 28.5041 25.2905 28.4583 25.2643 28.3927L24.6936 27.1149L23.2766 26.5054C23.211 26.4792 23.1651 26.4431 23.1389 26.3973C23.1126 26.3514 23.0995 26.2957 23.0995 26.2302C23.0995 26.1646 23.1126 26.1089 23.1389 26.0631C23.1651 26.0172 23.211 25.9812 23.2766 25.9549L24.6936 25.3455L25.2643 23.989C25.2905 23.9235 25.3266 23.8776 25.3725 23.8514C25.4185 23.8252 25.4742 23.812 25.5398 23.812C25.6054 23.812 25.6612 23.8252 25.7071 23.8514C25.753 23.8776 25.7891 23.9235 25.8153 23.989L26.386 25.3455L27.803 25.9549C27.8686 25.9812 27.9145 26.0172 27.9408 26.0631C27.967 26.1089 27.9801 26.1646 27.9801 26.2302C27.9801 26.2957 27.967 26.3514 27.9408 26.3973C27.9145 26.4431 27.8686 26.4792 27.803 26.5054L26.386 27.1149L25.8153 28.3927C25.7891 28.4583 25.7497 28.5041 25.6973 28.5303C25.6448 28.5565 25.5923 28.5697 25.5398 28.5697ZM16.9003 25.1686C16.7953 25.1686 16.6937 25.1391 16.5953 25.0801C16.4969 25.0211 16.4214 24.9392 16.369 24.8343L15.0898 22.1017L12.3346 20.8631C12.2296 20.8107 12.1476 20.7353 12.0886 20.637C12.0295 20.5387 12 20.4372 12 20.3323C12 20.2275 12.0295 20.1259 12.0886 20.0276C12.1476 19.9293 12.2296 19.8539 12.3346 19.8015L15.0898 18.563L16.369 15.8499C16.4214 15.732 16.4969 15.6435 16.5953 15.5845C16.6937 15.5256 16.7953 15.4961 16.9003 15.4961C17.0053 15.4961 17.1069 15.5256 17.2053 15.5845C17.3037 15.6435 17.3792 15.7254 17.4317 15.8303L18.7305 18.563L21.4661 19.8015C21.5841 19.8539 21.6727 19.9293 21.7317 20.0276C21.7908 20.1259 21.8203 20.2275 21.8203 20.3323C21.8203 20.4372 21.7908 20.5387 21.7317 20.637C21.6727 20.7353 21.5841 20.8107 21.4661 20.8631L18.7305 22.1017L17.4317 24.8343C17.3792 24.9523 17.3037 25.0375 17.2053 25.0899C17.1069 25.1423 17.0053 25.1686 16.9003 25.1686Z" fill="url(#paint1_linear_2633_40450)" shape-rendering="crispEdges"/>
</g>
<defs>
<filter id="filter0_di_2633_40450" x="8.85321" y="6.5332" width="24.7817" height="25.2564" filterUnits="userSpaceOnUse" color-interpolation-filters="sRGB">
<feFlood flood-opacity="0" result="BackgroundImageFix"/>
<feColorMatrix in="SourceAlpha" type="matrix" values="0 0 0 0 0 0 0 0 0 0 0 0 0 0 0 0 0 0 127 0" result="hardAlpha"/>
<feOffset dx="1.24408" dy="-1.1709"/>
<feGaussianBlur stdDeviation="2.19544"/>
<feComposite in2="hardAlpha" operator="out"/>
<feColorMatrix type="matrix" values="0 0 0 0 1 0 0 0 0 1 0 0 0 0 1 0 0 0 0.35 0"/>
<feBlend mode="normal" in2="BackgroundImageFix" result="effect1_dropShadow_2633_40450"/>
<feBlend mode="normal" in="SourceGraphic" in2="effect1_dropShadow_2633_40450" result="shape"/>
<feColorMatrix in="SourceAlpha" type="matrix" values="0 0 0 0 0 0 0 0 0 0 0 0 0 0 0 0 0 0 127 0" result="hardAlpha"/>
<feOffset dy="3.07361"/>
<feGaussianBlur stdDeviation="1.9393"/>
<feComposite in2="hardAlpha" operator="arithmetic" k2="-1" k3="1"/>
<feColorMatrix type="matrix" values="0 0 0 0 1 0 0 0 0 1 0 0 0 0 1 0 0 0 1 0"/>
<feBlend mode="normal" in2="shape" result="effect2_innerShadow_2633_40450"/>
</filter>
<linearGradient id="paint0_linear_2633_40450" x1="38" y1="-5" x2="8" y2="40" gradientUnits="userSpaceOnUse">
<stop stop-color="#ECC06C"/>
<stop offset="1" stop-color="#C19C55"/>
</linearGradient>
<linearGradient id="paint1_linear_2633_40450" x1="22.7967" y1="19.8497" x2="20.3181" y2="31.3722" gradientUnits="userSpaceOnUse">
<stop stop-color="white" stop-opacity="0.96"/>
<stop offset="1" stop-color="white" stop-opacity="0.23"/>
</linearGradient>
</defs>
</svg>
