<svg width="9" height="10" viewBox="0 0 9 10" fill="none" xmlns="http://www.w3.org/2000/svg">
<path d="M8.88889 1.5625V2.5C8.88889 3.36328 6.89881 4.0625 4.44444 4.0625C1.99008 4.0625 0 3.36328 0 2.5V1.5625C0 0.699219 1.99008 0 4.44444 0C6.89881 0 8.88889 0.699219 8.88889 1.5625ZM7.80159 4.19336C8.21429 4.04883 8.59325 3.86328 8.88889 3.63477V5.625C8.88889 6.48828 6.89881 7.1875 4.44444 7.1875C1.99008 7.1875 0 6.48828 0 5.625V3.63477C0.295635 3.86523 0.674603 4.04883 1.0873 4.19336C1.97817 4.50586 3.16468 4.6875 4.44444 4.6875C5.72421 4.6875 6.91071 4.50586 7.80159 4.19336ZM0 6.75977C0.295635 6.99023 0.674603 7.17383 1.0873 7.31836C1.97817 7.63086 3.16468 7.8125 4.44444 7.8125C5.72421 7.8125 6.91071 7.63086 7.80159 7.31836C8.21429 7.17383 8.59325 6.98828 8.88889 6.75977V8.4375C8.88889 9.30078 6.89881 10 4.44444 10C1.99008 10 0 9.30078 0 8.4375V6.75977Z" fill="#D9D9D9"/>
</svg>
