<svg width="11" height="10" viewBox="0 0 11 10" fill="none" xmlns="http://www.w3.org/2000/svg">
<path d="M0.656552 1.87568H7.20161V0.625951C7.20161 0.374053 7.36115 0.145587 7.60659 0.0479519C7.85203 -0.0496831 8.13224 0.00499246 8.32041 0.182688L10.2839 2.05728C10.4067 2.17444 10.4762 2.33261 10.4762 2.49859C10.4762 2.66457 10.4067 2.82274 10.2839 2.9399L8.32041 4.81449C8.13224 4.99414 7.85203 5.04686 7.60659 4.94923C7.36115 4.85159 7.20161 4.62508 7.20161 4.37123V3.12541H0.656552C0.294528 3.12541 0.00204533 2.84617 0.00204533 2.50054C0.00204533 2.15492 0.294528 1.87568 0.656552 1.87568ZM9.81964 6.87459C10.1817 6.87459 10.4741 7.15383 10.4741 7.49946C10.4741 7.84508 10.1817 8.12432 9.81964 8.12432H3.27458V9.37405C3.27458 9.62595 3.11504 9.85441 2.8696 9.95205C2.62416 10.0497 2.34395 9.99501 2.15578 9.81731L0.192261 7.94272C0.0695413 7.82556 0 7.66739 0 7.50141C0 7.33543 0.0695413 7.17726 0.192261 7.0601L2.15578 5.18551C2.34395 5.00586 2.62416 4.95314 2.8696 5.05077C3.11504 5.14841 3.27458 5.37492 3.27458 5.62877V6.8785H9.81964V6.87459Z" fill="white"/>
</svg>
