<svg width="17" height="16" viewBox="0 0 17 16" fill="none" xmlns="http://www.w3.org/2000/svg">
<path fill-rule="evenodd" clip-rule="evenodd" d="M9.20488 5.60777L14.75 4L13.3698 9.6061L11.648 7.9532L8.87069 10.8463C8.77641 10.9445 8.64615 11 8.51 11C8.37385 11 8.24359 10.9445 8.14931 10.8463L6.11 8.72199L3.11069 11.8463C2.91946 12.0455 2.60294 12.0519 2.40373 11.8607C2.20453 11.6695 2.19807 11.3529 2.38931 11.1537L5.74931 7.65373C5.84359 7.55552 5.97385 7.5 6.11 7.5C6.24615 7.5 6.37641 7.55552 6.47069 7.65373L8.51 9.77801L10.9266 7.26067L9.20488 5.60777Z" fill="#1C1C1C"/>
</svg>
