<svg width="10" height="3" viewBox="0 0 10 3" fill="none" xmlns="http://www.w3.org/2000/svg">
<path d="M0 1.25C0 0.918479 0.131696 0.600537 0.366117 0.366117C0.600537 0.131696 0.918479 0 1.25 0C1.58152 0 1.89946 0.131696 2.13388 0.366117C2.3683 0.600537 2.5 0.918479 2.5 1.25C2.5 1.58152 2.3683 1.89946 2.13388 2.13388C1.89946 2.3683 1.58152 2.5 1.25 2.5C0.918479 2.5 0.600537 2.3683 0.366117 2.13388C0.131696 1.89946 0 1.58152 0 1.25ZM3.57143 1.25C3.57143 0.918479 3.70312 0.600537 3.93755 0.366117C4.17197 0.131696 4.48991 0 4.82143 0C5.15295 0 5.47089 0.131696 5.70531 0.366117C5.93973 0.600537 6.07143 0.918479 6.07143 1.25C6.07143 1.58152 5.93973 1.89946 5.70531 2.13388C5.47089 2.3683 5.15295 2.5 4.82143 2.5C4.48991 2.5 4.17197 2.3683 3.93755 2.13388C3.70312 1.89946 3.57143 1.58152 3.57143 1.25ZM8.39286 0C8.72438 0 9.04232 0.131696 9.27674 0.366117C9.51116 0.600537 9.64286 0.918479 9.64286 1.25C9.64286 1.58152 9.51116 1.89946 9.27674 2.13388C9.04232 2.3683 8.72438 2.5 8.39286 2.5C8.06134 2.5 7.74339 2.3683 7.50897 2.13388C7.27455 1.89946 7.14286 1.58152 7.14286 1.25C7.14286 0.918479 7.27455 0.600537 7.50897 0.366117C7.74339 0.131696 8.06134 0 8.39286 0Z" fill="#E5E5E5"/>
</svg>
