<svg width="14" height="16" viewBox="0 0 14 16" fill="none" xmlns="http://www.w3.org/2000/svg">
<path d="M7.70625 0.292969C7.31563 -0.0976562 6.68125 -0.0976562 6.29063 0.292969L2.29063 4.29297C1.9 4.68359 1.9 5.31797 2.29063 5.70859C2.68125 6.09922 3.31562 6.09922 3.70625 5.70859L6 3.41484V9.99922C6 10.5523 6.44687 10.9992 7 10.9992C7.55313 10.9992 8 10.5523 8 9.99922V3.41484L10.2937 5.70859C10.6844 6.09922 11.3188 6.09922 11.7094 5.70859C12.1 5.31797 12.1 4.68359 11.7094 4.29297L7.70937 0.292969H7.70625ZM2 10.9992C2 10.4461 1.55313 9.99922 1 9.99922C0.446875 9.99922 0 10.4461 0 10.9992V12.9992C0 14.6555 1.34375 15.9992 3 15.9992H11C12.6562 15.9992 14 14.6555 14 12.9992V10.9992C14 10.4461 13.5531 9.99922 13 9.99922C12.4469 9.99922 12 10.4461 12 10.9992V12.9992C12 13.5523 11.5531 13.9992 11 13.9992H3C2.44687 13.9992 2 13.5523 2 12.9992V10.9992Z" fill="white"/>
</svg>
