<svg width="10" height="10" viewBox="0 0 10 10" fill="none" xmlns="http://www.w3.org/2000/svg">
<path d="M1.42857 0C0.640625 0 0 0.640625 0 1.42857V8.57143C0 9.35938 0.640625 10 1.42857 10H8.57143C9.35938 10 10 9.35938 10 8.57143V1.42857C10 0.640625 9.35938 0 8.57143 0H1.42857ZM4.46429 6.96429V5.53571H3.03571C2.73884 5.53571 2.5 5.29688 2.5 5C2.5 4.70312 2.73884 4.46429 3.03571 4.46429H4.46429V3.03571C4.46429 2.73884 4.70312 2.5 5 2.5C5.29688 2.5 5.53571 2.73884 5.53571 3.03571V4.46429H6.96429C7.26116 4.46429 7.5 4.70312 7.5 5C7.5 5.29688 7.26116 5.53571 6.96429 5.53571H5.53571V6.96429C5.53571 7.26116 5.29688 7.5 5 7.5C4.70312 7.5 4.46429 7.26116 4.46429 6.96429Z" fill="#464646"/>
</svg>
