<svg width="34" height="34" viewBox="0 0 34 34" fill="none" xmlns="http://www.w3.org/2000/svg">
<rect x="0.5" y="0.5" width="33" height="33" rx="16.5" stroke="#E0E5F2"/>
<path d="M19.9182 19.9136C19.7798 19.7759 19.7106 19.6119 19.7106 19.4215C19.7106 19.2311 19.7798 19.0692 19.9182 18.9356L21.1642 17.6965H15.8629C15.6673 17.6965 15.5025 17.6296 15.3685 17.4957C15.2344 17.3618 15.1674 17.1971 15.1674 17.0018C15.1674 16.8064 15.2344 16.6428 15.3685 16.5109C15.5025 16.379 15.6673 16.3131 15.8629 16.3131H21.129L19.8556 15.0467C19.7289 14.9263 19.6672 14.7725 19.6705 14.5853C19.6738 14.398 19.7459 14.2353 19.8869 14.097C20.0188 13.9587 20.1838 13.8912 20.3817 13.8945C20.5797 13.8977 20.7479 13.9682 20.8863 14.1059L23.3308 16.5371C23.402 16.6096 23.4544 16.6873 23.488 16.7703C23.5217 16.8533 23.5385 16.9384 23.5385 17.0257C23.5385 17.113 23.5217 17.1971 23.488 17.278C23.4544 17.359 23.402 17.4354 23.3308 17.5075L20.8939 19.9311C20.7672 20.0571 20.6092 20.1201 20.4198 20.1201C20.2305 20.1201 20.0633 20.0513 19.9182 19.9136ZM11.8625 23.5383C11.4792 23.5383 11.1499 23.4024 10.8746 23.1305C10.5992 22.8586 10.4615 22.5334 10.4615 22.1549V11.8547C10.4615 11.4735 10.5992 11.146 10.8746 10.8722C11.1499 10.5983 11.4792 10.4614 11.8625 10.4614H16.3461C16.5417 10.4614 16.7065 10.5303 16.8405 10.6681C16.9746 10.8058 17.0416 10.9721 17.0416 11.1669C17.0416 11.3617 16.9746 11.525 16.8405 11.6569C16.7065 11.7888 16.5417 11.8547 16.3461 11.8547H11.8625V22.1549H16.3461C16.5417 22.1549 16.7065 22.2219 16.8405 22.3558C16.9746 22.4897 17.0416 22.6543 17.0416 22.8497C17.0416 23.0451 16.9746 23.2087 16.8405 23.3406C16.7065 23.4724 16.5417 23.5383 16.3461 23.5383H11.8625Z" fill="#1B2559"/>
</svg>
