<svg width="10" height="9" viewBox="0 0 10 9" fill="none" xmlns="http://www.w3.org/2000/svg">
<path d="M1.25 0.9375C1.07812 0.9375 0.9375 1.07812 0.9375 1.25V7.5C0.9375 7.67188 1.07812 7.8125 1.25 7.8125H8.75C8.92188 7.8125 9.0625 7.67188 9.0625 7.5V1.25C9.0625 1.07812 8.92188 0.9375 8.75 0.9375H1.25ZM0 1.25C0 0.560547 0.560547 0 1.25 0H8.75C9.43945 0 10 0.560547 10 1.25V7.5C10 8.18945 9.43945 8.75 8.75 8.75H1.25C0.560547 8.75 0 8.18945 0 7.5V1.25ZM3.41797 2.79297C3.60156 2.60938 3.89844 2.60938 4.08008 2.79297L4.99805 3.71094L5.91602 2.79297C6.09961 2.60938 6.39648 2.60938 6.57812 2.79297C6.75977 2.97656 6.76172 3.27344 6.57812 3.45508L5.66016 4.37305L6.57812 5.29102C6.76172 5.47461 6.76172 5.77148 6.57812 5.95312C6.39453 6.13477 6.09766 6.13672 5.91602 5.95312L4.99805 5.03516L4.08008 5.95312C3.89648 6.13672 3.59961 6.13672 3.41797 5.95312C3.23633 5.76953 3.23438 5.47266 3.41797 5.29102L4.33594 4.37305L3.41797 3.45508C3.23438 3.27148 3.23438 2.97461 3.41797 2.79297Z" fill="#E7E7E7"/>
</svg>
