<svg width="795" height="244" viewBox="0 0 795 244" fill="none" xmlns="http://www.w3.org/2000/svg">
<path d="M9.587 13V12.233L12.4677 9.07955C12.8058 8.71023 13.0842 8.3892 13.3029 8.11648C13.5217 7.84091 13.6836 7.58239 13.7887 7.34091C13.8967 7.09659 13.9506 6.84091 13.9506 6.57386C13.9506 6.26705 13.8768 6.00142 13.729 5.77699C13.5842 5.55256 13.3853 5.37926 13.1325 5.2571C12.8796 5.13494 12.5955 5.07386 12.2802 5.07386C11.945 5.07386 11.6523 5.14347 11.4023 5.28267C11.1552 5.41903 10.9634 5.6108 10.8271 5.85795C10.6935 6.10511 10.6268 6.39489 10.6268 6.72727H9.62109C9.62109 6.21591 9.73899 5.76705 9.97479 5.38068C10.2106 4.99432 10.5316 4.69318 10.9379 4.47727C11.3469 4.26136 11.8058 4.15341 12.3143 4.15341C12.8256 4.15341 13.2788 4.26136 13.6737 4.47727C14.0685 4.69318 14.3782 4.98437 14.6026 5.35085C14.8271 5.71733 14.9393 6.125 14.9393 6.57386C14.9393 6.89489 14.881 7.20881 14.7646 7.51562C14.6509 7.8196 14.4521 8.15909 14.168 8.53409C13.8867 8.90625 13.4961 9.3608 12.9961 9.89773L11.0359 11.9943V12.0625H15.0927V13H9.587ZM20.381 4.27273H21.6424L24.6083 11.517H24.7106L27.6765 4.27273H28.9379V13H27.9492V6.36932H27.864L25.1367 13H24.1822L21.4549 6.36932H21.3697V13H20.381V4.27273Z" fill="#1C1C1C" fill-opacity="0.4"/>
<path d="M4.43715 65.2727V74H3.38033V66.8068H3.31214C3.27237 66.8864 3.1701 66.9773 3.00533 67.0795C2.84055 67.179 2.62749 67.267 2.36612 67.3438C2.10476 67.4176 1.80646 67.4545 1.47124 67.4545V66.5682C1.8093 66.5682 2.10192 66.5071 2.34908 66.3849C2.59624 66.2628 2.8022 66.1193 2.96697 65.9545C3.13459 65.7898 3.26101 65.6406 3.34624 65.5071C3.4343 65.3736 3.48544 65.2955 3.49964 65.2727H4.43715ZM7.17294 74.0682C6.96271 74.0682 6.78232 73.9929 6.63175 73.8423C6.48118 73.6918 6.40589 73.5114 6.40589 73.3011C6.40589 73.0909 6.48118 72.9105 6.63175 72.7599C6.78232 72.6094 6.96271 72.5341 7.17294 72.5341C7.38317 72.5341 7.56357 72.6094 7.71413 72.7599C7.8647 72.9105 7.93999 73.0909 7.93999 73.3011C7.93999 73.4403 7.90447 73.5682 7.83345 73.6847C7.76527 73.8011 7.67294 73.8949 7.55646 73.9659C7.44283 74.0341 7.31499 74.0682 7.17294 74.0682ZM12.2791 74.1193C11.7791 74.1193 11.3288 74.0199 10.9283 73.821C10.5277 73.6222 10.2067 73.3494 9.9652 73.0028C9.72372 72.6562 9.59162 72.2614 9.56889 71.8182H10.5916C10.6314 72.2131 10.8104 72.5398 11.1286 72.7983C11.4496 73.054 11.8331 73.1818 12.2791 73.1818C12.6371 73.1818 12.9553 73.098 13.2337 72.9304C13.5149 72.7628 13.7351 72.5327 13.8942 72.2401C14.0561 71.9446 14.1371 71.6108 14.1371 71.2386C14.1371 70.858 14.0533 70.5185 13.8857 70.2202C13.7209 69.919 13.4936 69.6818 13.2038 69.5085C12.9141 69.3352 12.5831 69.2472 12.2109 69.2443C11.9439 69.2415 11.6697 69.2827 11.3885 69.3679C11.1072 69.4503 10.8757 69.5568 10.6939 69.6875L9.70526 69.5682L10.2337 65.2727H14.7678V66.2102H11.12L10.8132 68.7841H10.8643C11.0433 68.642 11.2678 68.5241 11.5376 68.4304C11.8075 68.3366 12.0888 68.2898 12.3814 68.2898C12.9155 68.2898 13.3913 68.4176 13.8089 68.6733C14.2294 68.9261 14.5589 69.2727 14.7976 69.7131C15.0391 70.1534 15.1598 70.6562 15.1598 71.2216C15.1598 71.7784 15.0348 72.2756 14.7848 72.7131C14.5376 73.1477 14.1967 73.4915 13.7621 73.7443C13.3274 73.9943 12.8331 74.1193 12.2791 74.1193ZM20.381 65.2727H21.6424L24.6083 72.517H24.7106L27.6765 65.2727H28.9379V74H27.9492V67.3693H27.864L25.1367 74H24.1822L21.4549 67.3693H21.3697V74H20.381V65.2727Z" fill="#1C1C1C" fill-opacity="0.4"/>
<path d="M14.3512 126.273V135H13.2944V127.807H13.2262C13.1864 127.886 13.0842 127.977 12.9194 128.08C12.7546 128.179 12.5415 128.267 12.2802 128.344C12.0188 128.418 11.7205 128.455 11.3853 128.455V127.568C11.7234 127.568 12.016 127.507 12.2631 127.385C12.5103 127.263 12.7163 127.119 12.881 126.955C13.0487 126.79 13.1751 126.641 13.2603 126.507C13.3484 126.374 13.3995 126.295 13.4137 126.273H14.3512ZM20.381 126.273H21.6424L24.6083 133.517H24.7106L27.6765 126.273H28.9379V135H27.9492V128.369H27.864L25.1367 135H24.1822L21.4549 128.369H21.3697V135H20.381V126.273Z" fill="#1C1C1C" fill-opacity="0.4"/>
<path d="M26.25 196.119C25.608 196.119 25.0611 195.945 24.6094 195.595C24.1577 195.243 23.8125 194.733 23.5739 194.065C23.3352 193.395 23.2159 192.585 23.2159 191.636C23.2159 190.693 23.3352 189.888 23.5739 189.22C23.8153 188.55 24.1619 188.038 24.6136 187.686C25.0682 187.331 25.6136 187.153 26.25 187.153C26.8864 187.153 27.4304 187.331 27.8821 187.686C28.3366 188.038 28.6832 188.55 28.9219 189.22C29.1634 189.888 29.2841 190.693 29.2841 191.636C29.2841 192.585 29.1648 193.395 28.9261 194.065C28.6875 194.733 28.3423 195.243 27.8906 195.595C27.4389 195.945 26.892 196.119 26.25 196.119ZM26.25 195.182C26.8864 195.182 27.3807 194.875 27.733 194.261C28.0852 193.648 28.2614 192.773 28.2614 191.636C28.2614 190.881 28.1804 190.237 28.0185 189.706C27.8594 189.175 27.6293 188.77 27.3281 188.491C27.0298 188.213 26.6705 188.074 26.25 188.074C25.6193 188.074 25.1264 188.385 24.7713 189.007C24.4162 189.626 24.2386 190.503 24.2386 191.636C24.2386 192.392 24.3182 193.034 24.4773 193.562C24.6364 194.091 24.8651 194.493 25.1634 194.768C25.4645 195.044 25.8267 195.182 26.25 195.182Z" fill="#1C1C1C" fill-opacity="0.4"/>
<path d="M93.4036 230.273H94.4604V236.511C94.4604 237.068 94.3581 237.541 94.1536 237.93C93.949 238.32 93.6607 238.615 93.2885 238.817C92.9164 239.018 92.4775 239.119 91.9718 239.119C91.4945 239.119 91.0698 239.033 90.6976 238.859C90.3255 238.683 90.0328 238.433 89.8198 238.109C89.6067 237.786 89.5002 237.401 89.5002 236.955H90.54C90.54 237.202 90.601 237.418 90.7232 237.602C90.8482 237.784 91.0186 237.926 91.2346 238.028C91.4505 238.131 91.6962 238.182 91.9718 238.182C92.2757 238.182 92.5343 238.118 92.7473 237.99C92.9604 237.862 93.1223 237.675 93.2331 237.428C93.3468 237.178 93.4036 236.872 93.4036 236.511V230.273ZM98.9135 239.136C98.3681 239.136 97.8865 238.999 97.4689 238.723C97.0513 238.445 96.7246 238.053 96.4888 237.547C96.253 237.038 96.1351 236.438 96.1351 235.744C96.1351 235.057 96.253 234.46 96.4888 233.955C96.7246 233.449 97.0527 233.058 97.4732 232.783C97.8936 232.507 98.3794 232.369 98.9306 232.369C99.3567 232.369 99.6934 232.44 99.9405 232.582C100.191 232.722 100.381 232.881 100.512 233.06C100.645 233.236 100.749 233.381 100.823 233.494H100.908V232.455H101.914V239H100.942V237.994H100.823C100.749 238.114 100.644 238.264 100.507 238.446C100.371 238.625 100.176 238.786 99.9235 238.928C99.6706 239.067 99.334 239.136 98.9135 239.136ZM99.0499 238.233C99.4533 238.233 99.7942 238.128 100.073 237.918C100.351 237.705 100.563 237.411 100.708 237.036C100.852 236.658 100.925 236.222 100.925 235.727C100.925 235.239 100.854 234.811 100.712 234.445C100.57 234.075 100.36 233.788 100.081 233.584C99.8027 233.376 99.459 233.273 99.0499 233.273C98.6238 233.273 98.2686 233.382 97.9846 233.601C97.7033 233.817 97.4917 234.111 97.3496 234.483C97.2104 234.852 97.1408 235.267 97.1408 235.727C97.1408 236.193 97.2118 236.616 97.3539 236.997C97.4988 237.375 97.7118 237.676 97.9931 237.901C98.2772 238.122 98.6294 238.233 99.0499 238.233ZM104.901 235.062V239H103.895V232.455H104.867V233.477H104.952C105.105 233.145 105.338 232.878 105.651 232.676C105.963 232.472 106.367 232.369 106.861 232.369C107.304 232.369 107.692 232.46 108.024 232.642C108.357 232.821 108.615 233.094 108.8 233.46C108.985 233.824 109.077 234.284 109.077 234.841V239H108.071V234.909C108.071 234.395 107.938 233.994 107.671 233.707C107.404 233.418 107.037 233.273 106.571 233.273C106.25 233.273 105.963 233.342 105.71 233.482C105.46 233.621 105.263 233.824 105.118 234.091C104.973 234.358 104.901 234.682 104.901 235.062Z" fill="#1C1C1C" fill-opacity="0.4"/>
<path d="M197.057 239V230.273H202.29V231.21H198.114V234.159H201.898V235.097H198.114V239H197.057ZM206.227 239.136C205.597 239.136 205.053 238.997 204.595 238.719C204.141 238.438 203.79 238.045 203.543 237.543C203.298 237.037 203.176 236.449 203.176 235.778C203.176 235.108 203.298 234.517 203.543 234.006C203.79 233.491 204.134 233.091 204.574 232.804C205.017 232.514 205.534 232.369 206.125 232.369C206.466 232.369 206.803 232.426 207.135 232.54C207.467 232.653 207.77 232.838 208.043 233.094C208.315 233.347 208.533 233.682 208.695 234.099C208.857 234.517 208.938 235.031 208.938 235.642V236.068H203.892V235.199H207.915C207.915 234.83 207.841 234.5 207.693 234.21C207.548 233.92 207.341 233.692 207.071 233.524C206.804 233.357 206.489 233.273 206.125 233.273C205.724 233.273 205.378 233.372 205.085 233.571C204.795 233.767 204.572 234.023 204.416 234.338C204.26 234.653 204.182 234.991 204.182 235.352V235.932C204.182 236.426 204.267 236.845 204.438 237.189C204.611 237.53 204.851 237.79 205.158 237.969C205.464 238.145 205.821 238.233 206.227 238.233C206.491 238.233 206.73 238.196 206.943 238.122C207.159 238.045 207.345 237.932 207.501 237.781C207.658 237.628 207.778 237.437 207.864 237.21L208.835 237.483C208.733 237.812 208.561 238.102 208.32 238.352C208.078 238.599 207.78 238.793 207.425 238.932C207.07 239.068 206.67 239.136 206.227 239.136ZM210.604 239V230.273H211.609V233.494H211.695C211.768 233.381 211.871 233.236 212.001 233.06C212.135 232.881 212.325 232.722 212.572 232.582C212.822 232.44 213.161 232.369 213.587 232.369C214.138 232.369 214.624 232.507 215.044 232.783C215.464 233.058 215.793 233.449 216.028 233.955C216.264 234.46 216.382 235.057 216.382 235.744C216.382 236.438 216.264 237.038 216.028 237.547C215.793 238.053 215.466 238.445 215.048 238.723C214.631 238.999 214.149 239.136 213.604 239.136C213.183 239.136 212.847 239.067 212.594 238.928C212.341 238.786 212.146 238.625 212.01 238.446C211.874 238.264 211.768 238.114 211.695 237.994H211.575V239H210.604ZM211.592 235.727C211.592 236.222 211.665 236.658 211.81 237.036C211.955 237.411 212.166 237.705 212.445 237.918C212.723 238.128 213.064 238.233 213.467 238.233C213.888 238.233 214.239 238.122 214.52 237.901C214.804 237.676 215.017 237.375 215.159 236.997C215.304 236.616 215.376 236.193 215.376 235.727C215.376 235.267 215.305 234.852 215.163 234.483C215.024 234.111 214.813 233.817 214.528 233.601C214.247 233.382 213.893 233.273 213.467 233.273C213.058 233.273 212.714 233.376 212.436 233.584C212.158 233.788 211.947 234.075 211.805 234.445C211.663 234.811 211.592 235.239 211.592 235.727Z" fill="#1C1C1C" fill-opacity="0.4"/>
<path d="M303.26 230.273H304.521L307.487 237.517H307.589L310.555 230.273H311.817V239H310.828V232.369H310.743L308.016 239H307.061L304.334 232.369H304.249V239H303.26V230.273ZM316.271 239.136C315.725 239.136 315.244 238.999 314.826 238.723C314.409 238.445 314.082 238.053 313.846 237.547C313.61 237.038 313.493 236.438 313.493 235.744C313.493 235.057 313.61 234.46 313.846 233.955C314.082 233.449 314.41 233.058 314.831 232.783C315.251 232.507 315.737 232.369 316.288 232.369C316.714 232.369 317.051 232.44 317.298 232.582C317.548 232.722 317.738 232.881 317.869 233.06C318.002 233.236 318.106 233.381 318.18 233.494H318.265V232.455H319.271V239H318.299V237.994H318.18C318.106 238.114 318.001 238.264 317.865 238.446C317.728 238.625 317.534 238.786 317.281 238.928C317.028 239.067 316.691 239.136 316.271 239.136ZM316.407 238.233C316.811 238.233 317.152 238.128 317.43 237.918C317.708 237.705 317.92 237.411 318.065 237.036C318.21 236.658 318.282 236.222 318.282 235.727C318.282 235.239 318.211 234.811 318.069 234.445C317.927 234.075 317.717 233.788 317.439 233.584C317.16 233.376 316.816 233.273 316.407 233.273C315.981 233.273 315.626 233.382 315.342 233.601C315.061 233.817 314.849 234.111 314.707 234.483C314.568 234.852 314.498 235.267 314.498 235.727C314.498 236.193 314.569 236.616 314.711 236.997C314.856 237.375 315.069 237.676 315.35 237.901C315.635 238.122 315.987 238.233 316.407 238.233ZM321.252 239V232.455H322.224V233.443H322.292C322.412 233.119 322.627 232.857 322.94 232.655C323.252 232.453 323.605 232.352 323.997 232.352C324.071 232.352 324.163 232.354 324.274 232.357C324.385 232.359 324.468 232.364 324.525 232.369V233.392C324.491 233.384 324.413 233.371 324.291 233.354C324.172 233.334 324.045 233.324 323.912 233.324C323.593 233.324 323.309 233.391 323.059 233.524C322.812 233.655 322.616 233.837 322.471 234.07C322.329 234.3 322.258 234.562 322.258 234.858V239H321.252Z" fill="#1C1C1C" fill-opacity="0.4"/>
<path d="M411.971 239H410.863L414.068 230.273H415.159L418.363 239H417.256L414.648 231.653H414.579L411.971 239ZM412.381 235.591H416.846V236.528H412.381V235.591ZM419.586 241.455V232.455H420.558V233.494H420.677C420.751 233.381 420.854 233.236 420.984 233.06C421.118 232.881 421.308 232.722 421.555 232.582C421.805 232.44 422.143 232.369 422.569 232.369C423.121 232.369 423.606 232.507 424.027 232.783C424.447 233.058 424.775 233.449 425.011 233.955C425.247 234.46 425.365 235.057 425.365 235.744C425.365 236.438 425.247 237.038 425.011 237.547C424.775 238.053 424.449 238.445 424.031 238.723C423.613 238.999 423.132 239.136 422.586 239.136C422.166 239.136 421.829 239.067 421.577 238.928C421.324 238.786 421.129 238.625 420.993 238.446C420.856 238.264 420.751 238.114 420.677 237.994H420.592V241.455H419.586ZM420.575 235.727C420.575 236.222 420.648 236.658 420.792 237.036C420.937 237.411 421.149 237.705 421.427 237.918C421.706 238.128 422.047 238.233 422.45 238.233C422.871 238.233 423.221 238.122 423.503 237.901C423.787 237.676 424 237.375 424.142 236.997C424.287 236.616 424.359 236.193 424.359 235.727C424.359 235.267 424.288 234.852 424.146 234.483C424.007 234.111 423.795 233.817 423.511 233.601C423.23 233.382 422.876 233.273 422.45 233.273C422.041 233.273 421.697 233.376 421.419 233.584C421.14 233.788 420.93 234.075 420.788 234.445C420.646 234.811 420.575 235.239 420.575 235.727ZM426.899 239V232.455H427.871V233.443H427.939C428.058 233.119 428.274 232.857 428.586 232.655C428.899 232.453 429.251 232.352 429.643 232.352C429.717 232.352 429.809 232.354 429.92 232.357C430.031 232.359 430.115 232.364 430.172 232.369V233.392C430.138 233.384 430.059 233.371 429.937 233.354C429.818 233.334 429.692 233.324 429.558 233.324C429.24 233.324 428.956 233.391 428.706 233.524C428.459 233.655 428.263 233.837 428.118 234.07C427.976 234.3 427.905 234.562 427.905 234.858V239H426.899Z" fill="#1C1C1C" fill-opacity="0.4"/>
<path d="M516.153 230.273H517.414L520.38 237.517H520.482L523.448 230.273H524.709V239H523.721V232.369H523.635L520.908 239H519.954L517.226 232.369H517.141V239H516.153V230.273ZM529.164 239.136C528.618 239.136 528.137 238.999 527.719 238.723C527.301 238.445 526.975 238.053 526.739 237.547C526.503 237.038 526.385 236.438 526.385 235.744C526.385 235.057 526.503 234.46 526.739 233.955C526.975 233.449 527.303 233.058 527.723 232.783C528.144 232.507 528.629 232.369 529.181 232.369C529.607 232.369 529.943 232.44 530.191 232.582C530.441 232.722 530.631 232.881 530.762 233.06C530.895 233.236 530.999 233.381 531.073 233.494H531.158V232.455H532.164V239H531.192V237.994H531.073C530.999 238.114 530.894 238.264 530.757 238.446C530.621 238.625 530.426 238.786 530.173 238.928C529.921 239.067 529.584 239.136 529.164 239.136ZM529.3 238.233C529.703 238.233 530.044 238.128 530.323 237.918C530.601 237.705 530.813 237.411 530.958 237.036C531.102 236.658 531.175 236.222 531.175 235.727C531.175 235.239 531.104 234.811 530.962 234.445C530.82 234.075 530.61 233.788 530.331 233.584C530.053 233.376 529.709 233.273 529.3 233.273C528.874 233.273 528.519 233.382 528.235 233.601C527.953 233.817 527.742 234.111 527.6 234.483C527.46 234.852 527.391 235.267 527.391 235.727C527.391 236.193 527.462 236.616 527.604 236.997C527.749 237.375 527.962 237.676 528.243 237.901C528.527 238.122 528.879 238.233 529.3 238.233ZM534.793 241.455C534.622 241.455 534.47 241.44 534.337 241.412C534.203 241.386 534.111 241.361 534.06 241.335L534.316 240.449C534.56 240.511 534.776 240.534 534.963 240.517C535.151 240.5 535.317 240.416 535.462 240.266C535.61 240.118 535.744 239.878 535.867 239.545L536.054 239.034L533.634 232.455H534.725L536.531 237.67H536.6L538.406 232.455H539.497L536.719 239.955C536.594 240.293 536.439 240.572 536.254 240.794C536.07 241.018 535.855 241.185 535.611 241.293C535.369 241.401 535.097 241.455 534.793 241.455Z" fill="#1C1C1C" fill-opacity="0.4"/>
<path d="M628.644 230.273H629.701V236.511C629.701 237.068 629.598 237.541 629.394 237.93C629.189 238.32 628.901 238.615 628.529 238.817C628.157 239.018 627.718 239.119 627.212 239.119C626.735 239.119 626.31 239.033 625.938 238.859C625.566 238.683 625.273 238.433 625.06 238.109C624.847 237.786 624.74 237.401 624.74 236.955H625.78C625.78 237.202 625.841 237.418 625.963 237.602C626.088 237.784 626.259 237.926 626.475 238.028C626.691 238.131 626.936 238.182 627.212 238.182C627.516 238.182 627.775 238.118 627.988 237.99C628.201 237.862 628.363 237.675 628.473 237.428C628.587 237.178 628.644 236.872 628.644 236.511V230.273ZM635.807 236.324V232.455H636.813V239H635.807V237.892H635.739C635.586 238.224 635.347 238.507 635.023 238.74C634.699 238.97 634.29 239.085 633.796 239.085C633.387 239.085 633.023 238.996 632.705 238.817C632.387 238.635 632.137 238.362 631.955 237.999C631.773 237.632 631.682 237.17 631.682 236.614V232.455H632.688V236.545C632.688 237.023 632.821 237.403 633.088 237.688C633.358 237.972 633.702 238.114 634.12 238.114C634.37 238.114 634.624 238.05 634.882 237.922C635.144 237.794 635.363 237.598 635.539 237.334C635.718 237.07 635.807 236.733 635.807 236.324ZM639.661 235.062V239H638.655V232.455H639.626V233.477H639.712C639.865 233.145 640.098 232.878 640.411 232.676C640.723 232.472 641.126 232.369 641.621 232.369C642.064 232.369 642.452 232.46 642.784 232.642C643.116 232.821 643.375 233.094 643.56 233.46C643.744 233.824 643.837 234.284 643.837 234.841V239H642.831V234.909C642.831 234.395 642.697 233.994 642.43 233.707C642.163 233.418 641.797 233.273 641.331 233.273C641.01 233.273 640.723 233.342 640.47 233.482C640.22 233.621 640.023 233.824 639.878 234.091C639.733 234.358 639.661 234.682 639.661 235.062Z" fill="#1C1C1C" fill-opacity="0.4"/>
<path d="M737.73 230.273H738.787V236.511C738.787 237.068 738.684 237.541 738.48 237.93C738.275 238.32 737.987 238.615 737.615 238.817C737.243 239.018 736.804 239.119 736.298 239.119C735.821 239.119 735.396 239.033 735.024 238.859C734.652 238.683 734.359 238.433 734.146 238.109C733.933 237.786 733.826 237.401 733.826 236.955H734.866C734.866 237.202 734.927 237.418 735.049 237.602C735.174 237.784 735.345 237.926 735.561 238.028C735.777 238.131 736.022 238.182 736.298 238.182C736.602 238.182 736.86 238.118 737.074 237.99C737.287 237.862 737.449 237.675 737.559 237.428C737.673 237.178 737.73 236.872 737.73 236.511V230.273ZM744.893 236.324V232.455H745.899V239H744.893V237.892H744.825C744.672 238.224 744.433 238.507 744.109 238.74C743.785 238.97 743.376 239.085 742.882 239.085C742.473 239.085 742.109 238.996 741.791 238.817C741.473 238.635 741.223 238.362 741.041 237.999C740.859 237.632 740.768 237.17 740.768 236.614V232.455H741.774V236.545C741.774 237.023 741.907 237.403 742.174 237.688C742.444 237.972 742.788 238.114 743.206 238.114C743.456 238.114 743.71 238.05 743.968 237.922C744.23 237.794 744.449 237.598 744.625 237.334C744.804 237.07 744.893 236.733 744.893 236.324ZM748.746 230.273V239H747.741V230.273H748.746Z" fill="#1C1C1C" fill-opacity="0.4"/>
<mask id="mask0_2633_55234" style="mask-type:alpha" maskUnits="userSpaceOnUse" x="46" y="0" width="749" height="244">
<rect x="46" width="749" height="244" fill="black"/>
</mask>
<g mask="url(#mask0_2633_55234)">
<path d="M48.6748 184.017L96.321 137.656C100.232 133.851 105.527 131.809 110.98 132.003L163.626 133.878L222.205 137.904C226.388 138.191 230.556 137.157 234.119 134.946L310.12 87.7993C314.815 84.8873 320.981 86.333 323.891 91.028L367.954 162.105C371.349 167.581 377.173 171.086 383.601 171.522L449.532 175.988C455.784 176.411 461.873 173.88 465.982 169.149L500.098 129.877C505.275 123.917 513.474 121.56 521.026 123.861L566.461 137.707C577.057 140.935 588.26 134.937 591.446 124.328L606.069 75.6357C608.463 67.6634 615.545 62.0075 623.85 61.4356L689.322 56.9266C691.389 56.7843 693.421 56.3217 695.346 55.5554L773.6 24.3999" stroke="#A8C5DA" stroke-linecap="round" stroke-dasharray="2 4"/>
</g>
<mask id="mask1_2633_55234" style="mask-type:alpha" maskUnits="userSpaceOnUse" x="46" y="0" width="749" height="244">
<rect x="46" width="749" height="244" fill="black"/>
</mask>
<g mask="url(#mask1_2633_55234)">
<mask id="mask2_2633_55234" style="mask-type:alpha" maskUnits="userSpaceOnUse" x="48" y="35" width="726" height="209">
<path d="M87.0283 130.083L48.6748 143.184V244H773.6V68.2292L725.621 73.5155C722.198 73.8928 718.929 75.1479 716.133 77.1592L679.921 103.207C672.759 108.359 663.067 108.209 656.068 102.838L624.927 78.9452C616.303 72.3287 604.775 70.8942 594.793 75.1955L567.451 86.9772C560.434 90.0008 552.266 87.2667 548.483 80.6281L526.925 42.7972C521.805 33.8118 509.342 32.5815 502.564 40.3924L492.141 52.4033C483.539 62.315 470.623 67.3772 457.578 65.9493L422.254 62.083C414.99 61.2878 407.87 64.5183 403.684 70.5089L367.213 122.705C363.116 128.567 356.201 131.796 349.075 131.173L292.251 126.202C281.712 125.28 271.236 128.571 263.117 135.356L249.167 147.013C237.248 156.972 222.688 163.246 207.263 165.07L177.737 168.561C173.741 169.034 169.84 170.106 166.165 171.743L153.59 177.341C144.233 181.507 133.241 177.93 128.127 169.055L110.822 139.024C106.048 130.739 96.0771 126.992 87.0283 130.083Z" fill="url(#paint0_radial_2633_55234)"/>
</mask>
<g mask="url(#mask2_2633_55234)">
<path opacity="0.6" d="M87.0283 130.083L48.6748 143.184V244H773.6V68.2292L725.621 73.5155C722.198 73.8928 718.929 75.1479 716.133 77.1592L679.921 103.207C672.759 108.359 663.067 108.209 656.068 102.838L624.927 78.9452C616.303 72.3287 604.775 70.8942 594.793 75.1955L567.451 86.9772C560.434 90.0008 552.266 87.2667 548.483 80.6281L526.925 42.7972C521.805 33.8118 509.342 32.5815 502.564 40.3924L492.141 52.4033C483.539 62.3151 470.623 67.3772 457.578 65.9493L422.254 62.083C414.99 61.2878 407.87 64.5183 403.684 70.5089L367.213 122.705C363.116 128.567 356.201 131.796 349.075 131.173L292.251 126.202C281.712 125.28 271.236 128.571 263.117 135.356L249.167 147.013C237.248 156.972 222.688 163.246 207.263 165.07L177.737 168.561C173.741 169.034 169.84 170.106 166.165 171.743L153.59 177.341C144.233 181.507 133.241 177.93 128.127 169.055L110.822 139.024C106.048 130.739 96.0771 126.992 87.0283 130.083Z" fill="#1C1C1C"/>
</g>
<path d="M48.6748 142.698L77.7488 132.808C86.6021 129.796 91.0287 128.29 95.1957 128.643C98.8703 128.953 102.387 130.274 105.358 132.459C108.728 134.936 111.069 138.983 115.753 147.077L122.951 159.519C127.831 167.952 130.27 172.168 133.737 174.67C137.123 177.113 141.188 178.436 145.364 178.452C149.639 178.468 154.092 176.494 162.998 172.545V172.545C166.173 171.137 167.76 170.433 169.395 169.871C171.002 169.319 172.643 168.87 174.307 168.526C175.999 168.177 177.724 167.974 181.173 167.568L196.654 165.745C207.234 164.499 212.524 163.876 217.596 162.593C225.773 160.524 233.571 157.175 240.702 152.67C245.125 149.876 249.219 146.468 257.408 139.654V139.654C263.045 134.962 265.864 132.617 268.946 130.863C273.917 128.035 279.437 126.306 285.133 125.792C288.664 125.474 292.318 125.792 299.624 126.429L342.214 130.139C348.909 130.723 352.257 131.014 355.34 130.303C358.067 129.673 360.632 128.478 362.869 126.794C365.396 124.892 367.327 122.141 371.187 116.639L399.61 76.1268C403.563 70.4933 405.539 67.6766 408.132 65.7507C410.427 64.047 413.059 62.8548 415.853 62.2543C419.012 61.5756 422.432 61.9485 429.273 62.6942L449.766 64.928C457.44 65.7646 461.277 66.1828 464.927 65.9127C472.934 65.32 480.577 62.3314 486.862 57.3356C489.727 55.0586 492.263 52.1485 497.334 46.3283V46.3283C502.035 40.9334 504.386 38.2359 506.798 36.9401C512.166 34.0569 518.744 34.7072 523.444 38.5854C525.556 40.3284 527.332 43.4338 530.886 49.6447L544.498 73.4346C548.258 80.0056 550.138 83.291 552.859 85.2101C555.257 86.9007 558.098 87.8511 561.03 87.9437C564.358 88.0488 567.837 86.556 574.794 83.5705L585.179 79.1139C594.565 75.0858 599.258 73.0718 604.041 72.6498C608.271 72.2764 612.533 72.8057 616.544 74.2026C621.078 75.7814 625.136 78.8823 633.252 85.0839L649.042 97.1499C655.796 102.31 659.173 104.891 662.902 105.924C666.194 106.836 669.665 106.889 672.984 106.079C676.743 105.162 680.198 102.687 687.107 97.7371L713.585 78.7691C716.123 76.9509 717.392 76.0418 718.767 75.3472C719.987 74.7305 721.267 74.2405 722.588 73.885C724.075 73.4846 725.627 73.3143 728.73 72.9738L773.6 68.0501" stroke="url(#paint1_linear_2633_55234)" stroke-linecap="round"/>
<path d="M48.6748 142.698L77.7488 132.808C86.6021 129.796 91.0287 128.29 95.1957 128.643C98.8703 128.953 102.387 130.274 105.358 132.459C108.728 134.936 111.069 138.983 115.753 147.077L122.951 159.519C127.831 167.952 130.27 172.168 133.737 174.67C137.123 177.113 141.188 178.436 145.364 178.452C149.639 178.468 154.092 176.494 162.998 172.545V172.545C166.173 171.137 167.76 170.433 169.395 169.871C171.002 169.319 172.643 168.87 174.307 168.526C175.999 168.177 177.724 167.974 181.173 167.568L196.654 165.745C207.234 164.499 212.524 163.876 217.596 162.593C225.773 160.524 233.571 157.175 240.702 152.67C245.125 149.876 249.219 146.468 257.408 139.654V139.654C263.045 134.962 265.864 132.617 268.946 130.863C273.917 128.035 279.437 126.306 285.133 125.792C288.664 125.474 292.318 125.792 299.624 126.429L342.214 130.139C348.909 130.723 352.257 131.014 355.34 130.303C358.067 129.673 360.632 128.478 362.869 126.794C365.396 124.892 367.327 122.141 371.187 116.639L399.61 76.1268C403.563 70.4933 405.539 67.6766 408.132 65.7507C410.427 64.047 413.059 62.8548 415.853 62.2543C419.012 61.5756 422.432 61.9485 429.273 62.6942L449.766 64.928C457.44 65.7646 461.277 66.1828 464.927 65.9127C472.934 65.32 480.577 62.3314 486.862 57.3356C489.727 55.0586 492.263 52.1485 497.334 46.3283V46.3283C502.035 40.9334 504.386 38.2359 506.798 36.9401C512.166 34.0569 518.744 34.7072 523.444 38.5854C525.556 40.3284 527.332 43.4338 530.886 49.6447L544.498 73.4346C548.258 80.0056 550.138 83.291 552.859 85.2101C555.257 86.9007 558.098 87.8511 561.03 87.9437C564.358 88.0488 567.837 86.556 574.794 83.5705L585.179 79.1139C594.565 75.0858 599.258 73.0718 604.041 72.6498C608.271 72.2764 612.533 72.8057 616.544 74.2026C621.078 75.7814 625.136 78.8823 633.252 85.0839L649.042 97.1499C655.796 102.31 659.173 104.891 662.902 105.924C666.194 106.836 669.665 106.889 672.984 106.079C676.743 105.162 680.198 102.687 687.107 97.7371L713.585 78.7691C716.123 76.9509 717.392 76.0418 718.767 75.3472C719.987 74.7305 721.267 74.2405 722.588 73.885C724.075 73.4846 725.627 73.3143 728.73 72.9738L773.6 68.0501" stroke="#1C1C1C" stroke-linecap="round" style="mix-blend-mode:screen"/>
</g>
<defs>
<radialGradient id="paint0_radial_2633_55234" cx="0" cy="0" r="1" gradientUnits="userSpaceOnUse" gradientTransform="translate(411.136 64.7389) rotate(90) scale(119.495 355.666)">
<stop stop-opacity="0.08"/>
<stop offset="1" stop-opacity="0"/>
</radialGradient>
<linearGradient id="paint1_linear_2633_55234" x1="52.092" y1="202.035" x2="773.6" y2="202.035" gradientUnits="userSpaceOnUse">
<stop stop-opacity="0.4"/>
<stop offset="1"/>
</linearGradient>
</defs>
</svg>
